<?xml version="1.0" encoding="utf-8"?>
<!-- Generator: Adobe Illustrator 16.0.0, SVG Export Plug-In . SVG Version: 6.00 Build 0)  -->
<!DOCTYPE svg PUBLIC "-//W3C//DTD SVG 1.1//EN" "http://www.w3.org/Graphics/SVG/1.1/DTD/svg11.dtd">
<svg version="1.1" id="Layer_1" xmlns="http://www.w3.org/2000/svg" xmlns:xlink="http://www.w3.org/1999/xlink" x="0px" y="0px"
	 width="103px" height="103px" viewBox="0 0 103 103" enable-background="new 0 0 103 103" xml:space="preserve">
<g>
	<circle fill="#18191B" stroke="#18191B" stroke-width="0.6329" stroke-miterlimit="10" cx="51.333" cy="51.333" r="50"/>
	<g>
		<path fill="#FFCC73" stroke="#FFCC73" stroke-width="2.5" stroke-miterlimit="10" d="M90.942,26.488l-2.202,9.354l-1.031-0.213
			l0.14-0.676c0.129-0.592,0.195-1.09,0.195-1.494c0-1.233-0.771-1.85-2.313-1.85c-2.026,0-3.954,1.316-5.784,3.948
			c-1.831,2.632-3.248,6.118-4.251,10.457c-0.576,2.49-1.292,6.722-2.146,12.698c-0.855,5.975-1.282,9.722-1.282,11.239
			c0,1.209,0.427,1.814,1.282,1.814c0.595,0,1.459-0.332,2.593-0.996l0.501,1.103c-0.818,0.427-2.249,1.138-4.292,2.134
			c-1.561,0.759-2.937,1.482-4.126,2.17c0-2.134,0.395-6.088,1.185-11.862c0.79-5.774,1.705-11.399,2.746-16.877l-1.003,1.601
			c-0.818,1.328-2.082,3.343-3.791,6.046l-6.077,9.639l-6.188,9.746l-0.613,0.996l-0.697-0.64c0.65-1.612,0.976-3.213,0.976-4.802
			c0-2.632-0.483-6.675-1.45-12.129l-0.864-4.801c-0.019-0.047-0.065-0.308-0.14-0.783c-4.423,7.564-9.004,13.362-13.743,17.393
			c-4.739,4.031-9.357,6.046-13.854,6.046c-2.937,0-5.719-0.818-8.349-2.454c-2.63-1.636-4.697-3.853-6.202-6.651
			c-1.729-3.153-2.593-6.876-2.593-11.168c0-5.572,1.5-10.089,4.502-13.551c3.001-3.461,6.917-5.193,11.75-5.193
			c2.787,0,5.314,0.676,7.582,2.027c2.267,1.352,5.203,3.925,8.809,7.718c1.356,1.447,2.37,2.169,3.039,2.169
			c0.799,0,2.1-0.64,3.903-1.92l0.557,1.067l-7.052,4.944l-0.725-0.854c-3.382-4.055-6.709-7.167-9.979-9.336
			c-3.271-2.17-6.272-3.254-9.004-3.254c-3.494,0-6.295,1.316-8.404,3.948c-2.109,2.632-3.164,6.13-3.164,10.493
			c0,5.454,1.584,9.882,4.753,13.285c3.168,3.403,7.29,5.104,12.363,5.104c4.46,0,8.851-1.832,13.171-5.496
			c4.321-3.663,8.451-9.04,12.391-16.13c-0.353-2.561-0.529-4.707-0.529-6.438c0-4.292,0.734-8.513,2.202-12.662
			c1.468-4.149,2.964-6.225,4.488-6.225c1.505,0,2.258,1.636,2.258,4.909c0,2.11-0.446,4.535-1.338,7.273s-2.369,6.219-4.432,10.439
			c0.204,1.257,0.613,3.415,1.227,6.474c1.059,5.288,1.737,9.816,2.035,13.586c0.446-0.734,0.743-1.221,0.892-1.458l1.84-2.881
			l13.018-20.558c3.084-4.861,5.311-8.175,6.676-9.941c1.366-1.766,2.83-3.207,4.391-4.321
			C86.845,27.224,88.898,26.488,90.942,26.488z M54.509,45.588c1.115-2.466,2.012-4.979,2.69-7.541
			c0.678-2.561,1.018-4.707,1.018-6.438c0-1.826-0.493-2.739-1.478-2.739c-0.743,0-1.375,1.002-1.896,3.005
			c-0.521,2.004-0.78,4.417-0.78,7.238C54.063,40.941,54.211,43.099,54.509,45.588z"/>
	</g>
</g>
<g>
</g>
<g>
</g>
<g>
</g>
<g>
</g>
<g>
</g>
<g>
</g>
<g>
</g>
<g>
</g>
<g>
</g>
<g>
</g>
<g>
</g>
<g>
</g>
<g>
</g>
<g>
</g>
<g>
</g>
</svg>
