<svg width="58" height="31" viewBox="0 0 58 31" fill="none" xmlns="http://www.w3.org/2000/svg">
<path d="M3.85534 6.61314H3.70061C2.93556 6.61314 2.33813 6.80655 1.90833 7.19338C1.48712 7.5716 1.27652 8.2464 1.27652 9.21775C1.27652 9.53581 1.3066 9.75931 1.36678 9.88825C1.42695 10.0086 1.45704 10.0774 1.45704 10.0946C0.992847 10.0946 0.644706 10 0.412612 9.81088C0.189114 9.61317 0.0773647 9.29082 0.0773647 8.84382C0.0773647 8.2335 0.227796 7.67905 0.528659 7.18048C0.829522 6.67331 1.3066 6.265 1.95991 5.95554C2.6218 5.64608 3.45992 5.49135 4.47426 5.49135C5.0416 5.49135 5.65192 5.54293 6.30522 5.64608C6.85537 5.74064 7.34535 5.78792 7.77515 5.78792C8.3253 5.78792 8.82388 5.69766 9.27087 5.51714C9.25368 6.07589 9.11184 6.4885 8.84537 6.75498C8.57889 7.02145 8.18347 7.15469 7.65911 7.15469C7.38403 7.15469 7.10896 7.1332 6.83388 7.09022C6.55881 7.04724 6.16769 6.97418 5.66052 6.87102L3.88113 15.149H2.02438L3.85534 6.61314Z" fill="#F06292"/>
<path d="M7.08461 8.70199H8.94137L8.77374 9.50142C9.06601 9.24354 9.32819 9.04583 9.56028 8.90829C9.80097 8.77076 10.0589 8.70199 10.3339 8.70199C10.609 8.70199 10.8239 8.79655 10.9786 8.98566C11.142 9.17477 11.2236 9.40257 11.2236 9.66905C11.2236 9.91833 11.142 10.1375 10.9786 10.3266C10.8153 10.5158 10.5875 10.6103 10.2952 10.6103C10.1061 10.6103 9.97719 10.5673 9.90843 10.4814C9.84825 10.3868 9.80097 10.2536 9.76659 10.0817C9.7408 9.96991 9.71501 9.88825 9.68923 9.83667C9.66344 9.78509 9.61616 9.75931 9.54739 9.75931C9.36687 9.75931 9.21214 9.79799 9.0832 9.87535C8.96286 9.94412 8.80383 10.0688 8.60612 10.2493L7.57459 15.149H5.71784L7.08461 8.70199ZM12.8996 15.2264C12.2634 15.2264 11.7692 15.0631 11.4167 14.7364C11.0643 14.4012 10.8881 13.8811 10.8881 13.1762C10.8881 12.5831 11.0041 11.9298 11.2362 11.2163C11.4683 10.5029 11.8465 9.88825 12.3709 9.37248C12.8953 8.84812 13.5615 8.58594 14.3695 8.58594C15.3151 8.58594 15.7878 8.99855 15.7878 9.82378C15.7878 10.3052 15.6503 10.7479 15.3752 11.1519C15.1002 11.5559 14.7348 11.8825 14.2792 12.1318C13.8236 12.3725 13.338 12.5101 12.8222 12.5444C12.805 12.8023 12.7964 12.9742 12.7964 13.0602C12.7964 13.4814 12.8695 13.7694 13.0156 13.9241C13.1617 14.0702 13.3981 14.1433 13.7248 14.1433C14.189 14.1433 14.5844 14.0359 14.911 13.821C15.2463 13.6061 15.6116 13.2794 16.007 12.841H16.4454C15.4913 14.4313 14.3093 15.2264 12.8996 15.2264ZM12.9253 11.9255C13.2434 11.9083 13.5443 11.7966 13.8279 11.5903C14.1202 11.384 14.3523 11.1218 14.5242 10.8037C14.7047 10.4857 14.795 10.1504 14.795 9.79799C14.795 9.44555 14.6875 9.26933 14.4726 9.26933C14.1632 9.26933 13.858 9.54011 13.5572 10.0817C13.2649 10.6232 13.0543 11.2378 12.9253 11.9255ZM20.6591 15.2264C20.1347 15.2264 19.7479 15.0889 19.4986 14.8138C19.2579 14.5301 19.1376 14.182 19.1376 13.7694C19.1376 13.5889 19.1591 13.3869 19.2021 13.1634C19.245 12.9313 19.288 12.7078 19.331 12.4929C19.3826 12.278 19.417 12.1404 19.4342 12.0802C19.5029 11.7794 19.5674 11.4828 19.6276 11.1906C19.6877 10.8983 19.7178 10.6619 19.7178 10.4814C19.7178 10.043 19.5631 9.82378 19.2536 9.82378C19.0301 9.82378 18.8324 9.93553 18.6605 10.159C18.4886 10.3739 18.3511 10.6576 18.2479 11.01L17.3711 15.149H15.5143L16.8811 8.70199H18.7379L18.596 9.37248C19.0258 8.8911 19.5287 8.65041 20.1047 8.65041C20.5431 8.65041 20.8912 8.77076 21.1491 9.01145C21.407 9.25214 21.5359 9.61747 21.5359 10.1074C21.5359 10.3567 21.5058 10.6361 21.4456 10.9456C21.3855 11.2464 21.2995 11.6161 21.1878 12.0545C21.119 12.3209 21.0545 12.5831 20.9943 12.841C20.9428 13.0903 20.917 13.288 20.917 13.4341C20.917 13.6061 20.9557 13.7393 21.033 13.8338C21.1104 13.9284 21.2436 13.9757 21.4327 13.9757C21.6906 13.9757 21.8969 13.8854 22.0517 13.7049C22.2064 13.5158 22.3611 13.2278 22.5159 12.841H23.0574C22.7394 13.7866 22.3697 14.4227 21.9485 14.7493C21.5359 15.0674 21.1061 15.2264 20.6591 15.2264ZM24.0616 15.2264C23.5717 15.2264 23.1633 15.0588 22.8367 14.7235C22.51 14.3883 22.3467 13.8639 22.3467 13.1505C22.3467 12.5143 22.4714 11.8482 22.7206 11.1519C22.9785 10.447 23.3568 9.85386 23.8553 9.37248C24.3625 8.88251 24.9642 8.63752 25.6605 8.63752C26.0129 8.63752 26.2751 8.69769 26.447 8.81803C26.619 8.93838 26.7049 9.09741 26.7049 9.29512V9.34669L27.3367 6.38105L29.2451 6.12316L27.7622 13.086C27.7279 13.2149 27.7107 13.3525 27.7107 13.4986C27.7107 13.6705 27.7494 13.7952 27.8267 13.8725C27.9127 13.9413 28.0502 13.9757 28.2393 13.9757C28.48 13.9757 28.6863 13.8725 28.8582 13.6662C29.0388 13.4599 29.1806 13.1848 29.2838 12.841H29.8253C29.3009 14.3797 28.437 15.149 27.2336 15.149C26.8812 15.149 26.5932 15.0545 26.3697 14.8654C26.1548 14.6763 26.0215 14.4012 25.97 14.0402C25.7465 14.384 25.4757 14.6677 25.1576 14.8912C24.8482 15.1147 24.4828 15.2264 24.0616 15.2264ZM24.8998 13.9757C25.1061 13.9757 25.3124 13.8811 25.5187 13.692C25.7336 13.5029 25.8797 13.2407 25.9571 12.9055V12.841L26.5889 9.88825C26.5115 9.58738 26.3353 9.43695 26.0602 9.43695C25.7164 9.43695 25.4069 9.63896 25.1318 10.043C24.8568 10.4384 24.6419 10.9198 24.4871 11.4871C24.3324 12.0459 24.255 12.5401 24.255 12.9699C24.255 13.3997 24.3152 13.6748 24.4356 13.7952C24.5645 13.9155 24.7192 13.9757 24.8998 13.9757ZM31.3003 18.3726C30.8963 18.3726 30.5395 18.2393 30.2301 17.9729C29.9292 17.715 29.7788 17.384 29.7788 16.98C29.7788 16.6018 29.8733 16.2923 30.0624 16.0516C30.2516 15.8109 30.4965 15.6218 30.7974 15.4843C31.0983 15.3468 31.5023 15.2006 32.0094 15.0459L32.1384 14.4786C31.7 14.9771 31.1756 15.2264 30.5653 15.2264C30.1527 15.2264 29.8174 15.0975 29.5596 14.8396C29.3103 14.5817 29.1856 14.1949 29.1856 13.6791C29.1856 13.4642 29.22 13.1848 29.2888 12.841L30.1656 8.70199H32.0223L31.094 13.086C31.0682 13.1891 31.0553 13.2966 31.0553 13.4083C31.0553 13.7866 31.1842 13.9757 31.4421 13.9757C31.6828 13.9757 31.8891 13.8768 32.061 13.6791C32.2329 13.4728 32.3705 13.1934 32.4736 12.841L33.3504 8.70199H35.2201L33.647 16.1806C33.4751 17.0058 33.1699 17.5774 32.7315 17.8955C32.3017 18.2136 31.8246 18.3726 31.3003 18.3726ZM31.0037 17.225C31.1584 17.225 31.3046 17.1433 31.4421 16.98C31.5796 16.8253 31.6871 16.5717 31.7645 16.2193L31.9192 15.4585C31.4636 15.6132 31.1112 15.7938 30.8619 16.0001C30.6126 16.2064 30.4879 16.4728 30.4879 16.7995C30.4879 16.9026 30.5395 16.9972 30.6427 17.0832C30.7458 17.1777 30.8662 17.225 31.0037 17.225Z" fill="white"/>
<path d="M21.8685 18.6476C21.2152 18.8625 20.708 19.2192 20.347 19.7178C19.9946 20.2078 19.8183 20.8181 19.8183 21.5488C19.8183 21.8754 19.8484 22.0989 19.9086 22.2193C19.9688 22.3396 19.9989 22.4127 19.9989 22.4385C19.0791 22.4385 18.6192 22.0473 18.6192 21.2651C18.6192 20.7321 18.8212 20.1992 19.2252 19.6662C19.6378 19.1247 20.1622 18.6863 20.7983 18.351C21.443 18.0072 22.0834 17.8353 22.7195 17.8353C23.0376 17.8353 23.3642 17.8954 23.6995 18.0158L23.4029 24.811L26.2396 18.0158H28.0964L26.7425 27.5059H24.8857L25.711 21.7164L23.2869 27.5059H21.5204L21.7782 21.6906L19.6249 27.5059H18.5934L21.8685 18.6476Z" fill="#F06292"/>
<path d="M29.6966 27.5832C29.0691 27.5832 28.5792 27.4199 28.2267 27.0932C27.8743 26.758 27.6981 26.2379 27.6981 25.5331C27.6981 24.9399 27.8141 24.2866 28.0462 23.5732C28.2783 22.8597 28.6565 22.2451 29.1809 21.7293C29.7052 21.2049 30.3714 20.9428 31.1795 20.9428C32.125 20.9428 32.5978 21.3554 32.5978 22.1806C32.5978 22.662 32.4603 23.1047 32.1852 23.5087C31.9101 23.9127 31.5448 24.2393 31.0892 24.4886C30.6336 24.7293 30.1479 24.8669 29.6322 24.9012C29.615 25.0904 29.6064 25.2193 29.6064 25.2881C29.6064 26.0015 29.8729 26.3583 30.4058 26.3583C30.6465 26.3583 30.9044 26.2938 31.1795 26.1649C31.4545 26.0359 31.7038 25.8726 31.9273 25.6749C31.6952 26.9471 30.9517 27.5832 29.6966 27.5832ZM29.7224 24.2823C30.0491 24.2737 30.3542 24.1663 30.6379 23.96C30.9302 23.7537 31.1623 23.4915 31.3342 23.1734C31.5147 22.8468 31.605 22.5072 31.605 22.1548C31.605 21.8024 31.4975 21.6261 31.2826 21.6261C30.9818 21.6261 30.6809 21.9012 30.38 22.4514C30.0878 22.9929 29.8686 23.6032 29.7224 24.2823Z" fill="white"/>
<path d="M52.3222 15.3388C52.1864 14.5179 51.8699 13.9157 51.3882 13.5215C51.2019 13.3699 51.0087 13.2443 50.821 13.0992C50.7328 13.032 50.6516 12.9475 50.5676 12.8696C50.5494 12.8522 50.5354 12.8263 50.5088 12.7916C50.9177 12.705 51.2748 12.4732 51.594 12.0963C51.573 12.1115 51.5506 12.1267 51.5296 12.144C51.2664 12.3411 51.0003 12.5295 50.7076 12.601C50.6362 12.6183 50.562 12.6183 50.4892 12.6335C50.4233 12.6465 50.3897 12.5988 50.3645 12.51C50.2693 12.1851 50.2861 11.8559 50.3477 11.5267C50.3715 11.3989 50.4051 11.2733 50.4373 11.1476C50.842 9.56217 50.499 8.00269 49.5551 7.12548C49.3227 6.90889 49.0776 6.73994 48.8185 6.61432C48.5315 6.4757 48.2962 6.22445 48.1114 5.86273C47.9615 5.57033 47.8201 5.26493 47.6815 4.95737C47.1801 3.84407 46.4954 3.18779 45.6342 2.96469C45.5151 2.93437 45.3947 2.91488 45.2757 2.89105C45.102 2.89105 44.9284 2.89105 44.7547 2.89105C44.7365 2.89755 44.7197 2.90621 44.7015 2.90838C44.203 2.96036 43.7241 3.1358 43.262 3.41954C42.7467 3.73794 42.2747 4.16246 41.891 4.79059C41.6726 5.14797 41.5045 5.553 41.4373 6.04251C41.4009 6.31108 41.4009 6.5775 41.4513 6.86557C41.4779 6.73561 41.4975 6.62515 41.5213 6.52118C41.7258 5.63747 42.1277 5.03101 42.6598 4.61298C43.1794 4.20362 43.7367 4.03467 44.315 4.02168C44.7295 4.01301 45.137 4.09099 45.5305 4.29892C45.9674 4.53067 46.3315 4.9422 46.6606 5.43387C46.9253 5.83024 47.1885 6.22878 47.4518 6.62731C47.4532 6.62948 47.4518 6.63814 47.4518 6.64031C47.2936 6.52551 47.1367 6.40205 46.9743 6.30025C46.5766 6.049 46.2027 5.73927 45.8512 5.35373C45.2603 4.70612 44.5979 4.41588 43.8725 4.48519C43.4762 4.52201 43.0911 4.6628 42.7074 4.81008C42.4988 4.89022 42.3336 5.08083 42.1487 5.23677C42.1669 5.29309 42.1809 5.34074 42.1977 5.38622C42.3153 5.70462 42.4876 5.94071 42.6864 6.13131C43.2088 6.62948 43.7899 6.86123 44.3921 6.96303C44.773 7.02801 45.158 7.04101 45.5403 7.09732C46.0445 7.17313 46.5416 7.31175 47.0177 7.58466C47.3328 7.76443 47.6297 7.99836 47.8649 8.38606C47.9167 8.47053 47.9601 8.568 48.0078 8.65897C47.8971 8.58966 47.7977 8.50519 47.6941 8.43588C47.2222 8.11748 46.7222 7.96587 46.2195 7.84241C45.8246 7.74494 45.4283 7.6648 45.0334 7.56084C44.6637 7.46337 44.2982 7.33774 43.9299 7.23594C43.6177 7.14931 43.3026 7.07566 43.0015 6.91105C42.5674 6.67496 42.2397 6.26127 42.0773 5.57683C42.0745 5.566 42.0675 5.55733 42.0591 5.54217C41.9975 5.6743 41.9443 5.80642 41.8798 5.92554C41.8252 6.02734 41.8154 6.13348 41.8238 6.2591C41.8602 6.77026 42.0297 7.16663 42.2677 7.50235C42.5268 7.87057 42.8307 8.13048 43.1542 8.33624C43.6653 8.65897 44.1932 8.87557 44.7505 8.88206C45.0026 8.8864 45.2533 8.89073 45.5053 8.90589C45.9128 8.92971 46.3175 8.98819 46.7124 9.1593C47.4322 9.4712 47.9405 10.1426 48.166 11.2646C48.2486 11.6761 48.3018 12.1007 48.3648 12.5209C48.4125 12.8436 48.4335 13.1771 48.5343 13.4782C48.7037 13.9807 48.96 14.3489 49.2709 14.6327C49.3507 14.7063 49.4333 14.7691 49.5285 14.8471C49.2218 14.7496 48.9698 14.546 48.7653 14.206C48.5455 13.8421 48.4026 13.4089 48.299 12.9454C48.1954 12.4775 48.1086 12.001 47.9923 11.5397C47.7221 10.4654 47.2404 9.75061 46.4954 9.50586C46.1229 9.3824 45.7434 9.34774 45.3653 9.30659C44.9844 9.26327 44.6007 9.24378 44.2254 9.15281C43.1317 8.88856 42.2859 8.02002 41.6866 6.5775C41.6796 6.56017 41.6698 6.54284 41.6516 6.50818C41.6572 6.56233 41.6586 6.58832 41.6628 6.61648C41.7188 7.03018 41.8532 7.38106 42.0353 7.68863C42.4638 8.41855 42.9889 8.91239 43.6009 9.1853C44.112 9.41272 44.6371 9.4842 45.1664 9.52535C45.5824 9.55784 45.9969 9.59899 46.4072 9.71379C47.0429 9.8914 47.526 10.3961 47.8369 11.2798C47.8453 11.3058 47.8523 11.3318 47.8607 11.3599C47.8453 11.3534 47.8383 11.3404 47.8313 11.3253C47.5372 10.6733 47.1423 10.2379 46.6452 10.0387C46.1929 9.85674 45.728 9.83941 45.2631 9.83075C44.92 9.82425 44.5769 9.83725 44.2338 9.81992C43.9818 9.80692 43.7283 9.75061 43.5056 9.55567C43.199 9.28926 42.8923 9.01635 42.6038 8.70662C42.1473 8.21712 41.7972 7.58249 41.5928 6.77243C41.59 6.7616 41.5844 6.75294 41.5704 6.72261C41.5648 6.92621 41.5438 7.10815 41.5578 7.28359C41.5942 7.73411 41.7286 8.12398 41.9036 8.4792C42.2117 9.10732 42.615 9.55134 43.0575 9.92172C43.0939 9.95204 43.1331 9.97587 43.164 10.017C43.4216 10.3636 43.7199 10.6105 44.0238 10.8422C44.0826 10.8877 44.1442 10.9375 44.189 11.009C44.308 11.1996 44.4355 11.3837 44.5279 11.6025C44.871 12.4256 44.9914 13.3266 44.8906 14.2991C44.8472 14.7171 44.8192 15.1417 44.8542 15.5662C44.8976 16.086 45.0404 16.5105 45.3429 16.7748C45.3877 16.8138 45.4017 16.8484 45.3961 16.9286C45.3583 17.5307 45.4409 18.0765 45.7224 18.5205C46.0375 19.0165 46.424 19.2721 46.8721 19.2743C47.4602 19.2786 47.8257 18.7155 47.8187 17.8383C47.8159 17.4289 47.5302 17.0174 47.267 17.0412C47.1269 17.0542 47.0387 17.2188 47.0681 17.4246C47.0751 17.4029 47.0807 17.3834 47.0863 17.3661C47.1115 17.2903 47.1381 17.2058 47.204 17.2101C47.2698 17.2145 47.3006 17.2989 47.3202 17.3834C47.3594 17.548 47.3664 17.717 47.3202 17.8816C47.2026 18.3018 46.9785 18.5054 46.697 18.5639C46.4198 18.6223 46.2279 18.4144 46.0893 18.0635C45.9632 17.7451 45.9338 17.3899 45.9324 17.0239C45.9324 16.9372 45.9464 16.8961 46.0067 16.8722C46.1649 16.8116 46.3077 16.6925 46.4366 16.5365C46.2797 16.6427 46.1215 16.7336 45.9296 16.7423C45.9688 16.4347 45.9941 16.1402 46.0445 15.8564C46.1397 15.3301 46.2545 14.8103 46.3525 14.2861C46.55 13.2335 46.4324 12.2934 45.917 11.5029C45.875 11.4379 45.8316 11.3772 45.7882 11.3166C45.8092 11.3101 45.826 11.3144 45.8414 11.3253C46.0039 11.4465 46.1677 11.5657 46.3273 11.6935C46.3539 11.7151 46.3791 11.7736 46.3847 11.8213C46.4268 12.1245 46.459 12.4321 46.501 12.7375C46.6186 13.5865 46.7796 14.4139 47.0485 15.1828C47.2852 15.8629 47.5652 16.4889 47.9979 16.9091C48.2276 17.1322 48.4615 17.3488 48.7009 17.5459C49.0258 17.8123 49.3619 18.0462 49.6854 18.3169C50.0341 18.6072 50.2035 19.1811 50.1433 19.7854C50.0859 20.3702 49.9024 20.8533 49.6223 21.2431C49.184 21.8539 48.7345 22.4431 48.2864 23.0387C48.2444 23.095 48.2374 23.1427 48.25 23.2206C48.313 23.5932 48.4657 23.8466 48.6897 23.996C48.7793 24.0545 48.876 24.0849 48.9698 24.1282C49.0664 24.1282 49.1616 24.1282 49.2583 24.1282C49.4053 24.0654 49.5523 24.0025 49.698 23.9354C49.7428 23.9137 49.7848 23.8748 49.8394 23.8358C49.7806 23.8033 49.7344 23.7773 49.6896 23.7491C49.4207 23.5759 49.3325 23.277 49.4305 22.8524C49.5131 22.4929 49.663 22.1983 49.8156 21.9059C49.9696 21.6092 50.1251 21.3124 50.2735 21.007C50.3365 20.8749 50.3855 20.7233 50.4331 20.576C50.4556 20.5089 50.478 20.4894 50.527 20.4894C51.0059 20.498 51.405 20.2338 51.7131 19.6577C51.8755 19.3544 51.9357 18.9862 51.9749 18.6137C52.0001 18.3754 51.9889 18.1285 51.9973 17.8881C51.9987 17.8556 52.0043 17.8166 52.0169 17.7928C52.2256 17.3942 52.3418 16.9372 52.3782 16.4304C52.3796 16.4066 52.3866 16.3827 52.3894 16.3589C52.3894 16.19 52.3894 16.0189 52.3894 15.8499C52.3628 15.6701 52.3488 15.5034 52.3222 15.3388ZM45.8386 13.3764C45.8442 13.8053 45.8078 14.2233 45.7392 14.6348C45.6286 15.2911 45.5109 15.9431 45.3947 16.6037C45.2841 16.5365 45.1959 16.4087 45.1356 16.229C45.0572 15.9885 45.0236 15.7308 44.9984 15.4665C44.9536 14.9965 44.983 14.5309 45.0306 14.063C45.0894 13.4825 45.095 12.8999 44.9886 12.3281C44.9158 11.936 44.787 11.596 44.5993 11.3058C44.5825 11.2798 44.5671 11.2559 44.5517 11.23C44.5503 11.2278 44.5503 11.2235 44.5419 11.1996C44.8584 11.4314 45.1608 11.6588 45.4185 12.001C45.693 12.3627 45.8316 12.8176 45.8386 13.3764ZM47.8901 7.1558C47.8789 7.13848 47.8663 7.12331 47.8621 7.08866C48.012 7.21212 48.1716 7.31392 48.3088 7.4612C48.8101 8.00052 49.184 8.70662 49.4263 9.57517C49.4935 9.81775 49.5257 10.0733 49.5187 10.3397C49.5061 10.8791 49.4949 11.4206 49.4823 11.9837C49.3381 11.7736 49.2331 11.5418 49.1854 11.2668C49.1266 10.9267 49.0832 10.5802 49.0482 10.2314C48.9964 9.71812 48.9418 9.20912 48.7541 8.7651C48.5091 8.17596 48.229 7.62798 47.8901 7.1558ZM46.6606 12.3259C46.6508 12.2285 46.641 12.131 46.6284 12.0075C46.662 12.0487 46.6816 12.0747 46.7026 12.1007C47.0569 12.5728 47.2838 13.1728 47.4434 13.8442C47.6101 14.5395 47.8271 15.1893 48.1646 15.7265C48.2584 15.8759 48.362 16.008 48.4517 16.1337C47.5204 15.2564 46.8371 14.0782 46.6606 12.3259ZM48.3662 13.7901C48.2598 13.3136 48.1814 12.8241 48.089 12.3389C48.096 12.3346 48.103 12.3281 48.11 12.3238C48.1716 12.601 48.2276 12.8804 48.2962 13.1533C48.3564 13.3937 48.4223 13.632 48.5007 13.8594C48.7261 14.5179 49.0692 14.9402 49.5467 15.1005C49.8324 15.1958 50.1153 15.3106 50.3953 15.4427C50.6166 15.5467 50.8168 15.7308 50.9933 15.9972C50.8547 15.9496 50.7286 15.8954 50.6012 15.8607C50.3449 15.7936 50.0845 15.7503 49.8296 15.6745C49.1168 15.4622 48.6057 14.8687 48.3662 13.7901ZM50.9205 15.642C51.0353 15.7698 51.1193 15.9236 51.1795 16.1098C51.0941 15.956 51.0101 15.8044 50.9205 15.642ZM50.4976 20.3291C50.506 20.2858 50.5116 20.2511 50.52 20.2165C50.688 19.4476 50.6082 18.7241 50.3449 18.0397C50.2567 17.8101 50.1237 17.6433 49.9752 17.5134C49.6966 17.2708 49.4137 17.0412 49.1336 16.8008C48.988 16.6751 48.8466 16.5387 48.7037 16.4066C48.7079 16.3979 48.7107 16.3914 48.7149 16.3827C48.9992 16.6275 49.3045 16.7769 49.6195 16.8896C49.8464 16.9719 50.0747 17.0434 50.3001 17.1343C50.5802 17.247 50.8392 17.4224 51.0325 17.7798C51.1263 17.9531 51.1963 18.1437 51.2411 18.3603C51.2538 18.4209 51.2481 18.4577 51.2075 18.4859C51.1011 18.566 50.9961 18.6505 50.8939 18.748C51.0171 18.696 51.1403 18.6418 51.265 18.5898C51.3644 19.2591 50.9793 20.1428 50.4976 20.3291ZM51.9441 17.3423C51.9371 17.3639 51.9287 17.3834 51.9273 17.3877C51.8307 17.156 51.7397 16.9156 51.636 16.6925C51.5772 16.5647 51.4946 16.4629 51.4246 16.3459C51.4092 16.3199 51.391 16.2853 51.3896 16.2528C51.3602 15.6095 51.1347 15.1482 50.814 14.7778C50.5368 14.4572 50.2245 14.2363 49.8968 14.0738C49.6784 13.9655 49.5089 13.7641 49.3689 13.4934C49.1518 13.0753 48.9978 12.6032 48.8564 12.1202C48.8073 11.9534 48.7681 11.7823 48.7247 11.6133C48.7303 11.609 48.7345 11.6047 48.7401 11.6025C48.7485 11.6155 48.7569 11.6285 48.7639 11.6436C48.946 12.0487 49.1826 12.3497 49.4725 12.5555C49.4977 12.5728 49.5285 12.6118 49.5355 12.6508C49.6574 13.4132 49.9752 13.9287 50.4093 14.2796C50.6138 14.4442 50.8406 14.546 51.0591 14.6716C51.1851 14.7453 51.3154 14.8038 51.44 14.8817C51.8069 15.1113 51.9973 15.5597 52.066 16.1423C52.115 16.5582 52.066 16.961 51.9441 17.3423Z" fill="white"/>
<path d="M40.4263 13.4824C40.5733 13.4066 40.7232 13.3438 40.8702 13.2637C41.1335 13.1185 41.2833 12.8132 41.3505 12.4038C41.3883 12.1742 41.3841 11.9424 41.3561 11.7085C41.3043 11.2818 41.1923 10.892 41.0579 10.5172C40.8282 9.87829 40.8086 9.21551 40.929 8.52674C41.0088 8.07406 41.1419 7.65603 41.2777 7.238C41.3015 7.16436 41.3197 7.08422 41.3407 7.00841C41.3239 7.00624 41.3155 7.01274 41.3113 7.02357C41.1111 7.43727 40.9304 7.87046 40.81 8.35563C40.6952 8.81914 40.649 9.29565 40.7064 9.79165C40.7498 10.1729 40.859 10.5151 40.9668 10.8573C41.0411 11.0956 41.1223 11.336 41.1615 11.5894C41.2469 12.1482 41.1195 12.5641 40.7988 12.8023C40.7022 12.8738 40.6013 12.9301 40.5019 12.9929C40.3661 13.0774 40.2261 13.1467 40.0958 13.2442C39.9306 13.3676 39.827 13.5799 39.7877 13.8593C39.7849 13.8745 39.7793 13.8896 39.7737 13.9048C39.7737 14.0607 39.7737 14.2167 39.7737 14.3726C39.7933 14.5091 39.8116 14.6477 39.8312 14.7842C39.8452 14.743 39.8438 14.704 39.8452 14.665C39.8536 14.403 39.8858 14.1539 39.9852 13.9329C40.0916 13.6904 40.2527 13.5712 40.4263 13.4824Z" fill="white"/>
<path d="M46.9841 20.1905C47.0681 20.2663 47.1396 20.3767 47.211 20.4785C47.2372 20.5167 47.2094 20.7308 47.2206 20.7746C47.1379 20.9976 47.0599 21.0848 46.9419 21.4642C46.6828 21.9992 46.4618 22.5557 46.1971 23.0842C46.1173 23.2445 45.9858 26.2305 46.8496 28.6918C46.8496 28.6918 43.6429 29.6308 39.757 26.2305C39.757 26.2305 42.2121 22.7847 42.1613 21.5593C42.1669 21.3991 42.1893 21.2366 42.1739 21.085C42.1417 20.7644 42.1011 20.4439 42.0423 20.1342C41.9135 19.454 42.0059 18.8584 42.2958 18.3213C42.2981 18.317 42.3005 18.3129 42.3029 18.3089L42.3719 18.1885L43.0964 14.8267H43.2636C43.0921 16.0178 42.96 18.4682 43.6555 19.5032L43.874 19.7551C43.9174 19.8071 43.9594 19.8071 44.0126 19.7768C44.324 19.599 44.5202 19.4389 44.8241 19.3953C45.5275 19.2944 46.3221 19.5991 46.9841 20.1905Z" fill="white"/>
<path d="M42.7131 14.5959C42.9567 14.7129 43.199 14.8471 43.4426 14.9663C43.472 14.9814 43.5155 14.9684 43.5435 14.9446C43.7773 14.7497 43.9328 14.4508 44.0252 14.0674C44.0322 14.0371 44.042 14.0068 44.049 13.9764C44.056 13.9786 44.0644 13.9808 44.0714 13.9829C44.0588 14.3316 44.0476 14.6825 44.0364 15.0291C44.2254 15.0053 44.3669 14.8536 44.4229 14.5894C44.5097 14.1844 44.4677 13.775 44.4299 13.3526C44.2969 13.5129 44.1736 13.6645 44.0476 13.8075C43.8571 14.0262 43.6527 14.2039 43.4146 14.2688C43.234 14.3186 43.0716 14.1259 43.0674 13.8421C43.0645 13.645 43.0197 13.5259 42.8909 13.4739C42.7971 13.4349 42.7621 13.3331 42.7663 13.1837C42.7677 13.149 42.7705 13.1144 42.7747 13.0667C42.7607 13.0581 42.7509 13.0516 42.7397 13.0451C42.6066 12.9693 42.5576 12.8458 42.573 12.6292C42.5758 12.5881 42.5814 12.5447 42.58 12.5036C42.5786 12.4104 42.5604 12.3433 42.489 12.3151C42.4106 12.2848 42.3364 12.2242 42.2608 12.1744C42.2075 12.1375 42.1921 12.0747 42.2033 11.9838C42.2299 11.765 42.2467 11.5441 42.2776 11.3253C42.3336 10.9159 42.2986 10.5434 42.1655 10.1709C42.0423 9.82647 41.9457 9.45609 41.8519 9.09005C41.6992 8.49225 41.5522 7.89011 41.4668 7.25766C41.4598 7.20784 41.4542 7.16019 41.4458 7.08655C41.2903 7.5219 41.1433 7.93343 41.0467 8.38178C41.006 8.56806 40.9696 8.76083 40.9528 8.95576C40.9038 9.52324 40.9682 10.0734 41.1237 10.5889C41.2553 11.0242 41.4177 11.4358 41.5592 11.8625C41.6236 12.0552 41.6838 12.2567 41.7216 12.4646C41.7734 12.7548 41.7062 12.9758 41.534 13.11C41.4233 13.1967 41.3015 13.253 41.1825 13.3136C41.0046 13.4025 40.8198 13.4631 40.6462 13.5692C40.2092 13.84 39.9964 14.3663 40.0202 15.0897C40.0328 15.5034 40.1266 15.8911 40.2036 16.281C40.2639 16.5842 40.3283 16.8896 40.3605 17.1994C40.3969 17.5567 40.2919 17.7452 40.0594 17.821C40.0076 17.8383 39.9558 17.847 39.8956 17.8621C40.1644 18.1524 40.7008 18.0203 40.8408 17.3553C40.8856 17.143 40.901 16.9243 40.8744 16.7055C40.8366 16.398 40.7834 16.0926 40.7428 15.785C40.6812 15.3128 40.7512 15.0464 41.027 14.8276C41.2245 14.6695 41.4401 14.5634 41.6474 14.4356C41.6628 14.4269 41.6782 14.4226 41.6922 14.4183C41.5606 14.5396 41.4233 14.6479 41.3001 14.7865C40.9472 15.1785 40.8128 15.7178 40.8926 16.3741C40.9276 16.6579 40.9892 16.9329 41.0354 17.2145C41.1181 17.7214 41.0228 18.0679 40.733 18.3386C40.6952 18.3733 40.6574 18.4058 40.6209 18.4383C40.7722 18.4383 40.922 18.4383 41.0775 18.4383C41.0817 18.3473 41.0845 18.2737 41.0873 18.2C41.1153 17.4225 41.1447 16.647 41.1713 15.8695C41.1839 15.5034 41.2581 15.1785 41.4093 14.897C41.5382 14.6565 41.7034 14.5071 41.9037 14.4594C42.1809 14.388 42.4498 14.4681 42.7131 14.5959ZM42.622 13.658C42.587 13.879 42.3336 14.1324 42.1389 14.167C42.2916 14.0089 42.4624 13.827 42.622 13.658Z" fill="white"/>
<ellipse cx="46.371" cy="6.02464" rx="11.3076" ry="2.59418" transform="rotate(18.2649 46.371 6.02464)" fill="#F06292"/>
<ellipse cx="47.5617" cy="3.91412" rx="4.53898" ry="2.55058" transform="rotate(19.4114 47.5617 3.91412)" fill="#F06292"/>
<path d="M45.5092 17.5807C45.5092 17.5807 45.5092 18.2136 44.5247 18.7762" stroke="white" stroke-width="0.0984522" stroke-linecap="round" stroke-linejoin="round" stroke-dasharray="0.14 0.14"/>
<path d="M45.5797 17.5807C45.5797 17.5807 45.65 18.1433 44.7358 18.9168" stroke="white" stroke-width="0.0984522" stroke-linecap="round" stroke-linejoin="round" stroke-dasharray="0.14 0.14"/>
<path d="M50.3616 17.0181C50.3616 17.0181 44.2435 19.6903 43.5831 15.1897" stroke="white" stroke-width="0.0984522" stroke-linecap="round" stroke-linejoin="round" stroke-dasharray="0.14 0.14"/>
<path d="M45.4888 17.5808C45.4888 17.5808 45.6802 18.1145 44.9568 19.0689" stroke="white" stroke-width="0.0984522" stroke-linecap="round" stroke-linejoin="round" stroke-dasharray="0.14 0.14"/>
<path d="M45.4304 17.5811C45.4304 17.5811 45.7315 18.0615 45.2289 19.1485" stroke="white" stroke-width="0.0984522" stroke-linecap="round" stroke-linejoin="round" stroke-dasharray="0.14 0.14"/>
</svg>
